<?xml version="1.0" encoding="UTF-8" standalone="no"?>
<!-- Created with Inkscape (http://www.inkscape.org/) -->

<svg
   width="450.39691"
   height="122.40979"
   viewBox="0 0 450.39691 122.40979"
   version="1.1"
   id="svg1"
   xmlns="http://www.w3.org/2000/svg"
   xmlns:svg="http://www.w3.org/2000/svg">
  <defs
     id="defs1" />
  <path
     style="font-size:125.558px;font-family:Silom;-inkscape-font-specification:'Silom, Normal';fill:#aaa8a8;stroke-width:9.56425;stroke-linecap:round;stroke-linejoin:round;paint-order:stroke markers fill"
     d="M 1.9641113e-7,122.40979 0.3980732,0 C 6.1548022,2.31714 13.815558,5.74195 22.937908,31.27758 v 20.85171 c 1.074964,-4.33569 5.88558,-6.15949 9.788342,-6.03711 h 10.99602 c 5.93436,0 11.039655,2.13811 15.315884,6.41434 4.276228,4.27623 6.414343,9.38152 6.414343,15.31588 v 54.58739 H 43.72227 V 67.8224 c 0,-2.96718 -1.090875,-5.498 -3.272625,-7.59248 -2.09448,-2.18175 -4.668945,-3.27263 -7.723395,-3.27263 -2.96718,0 -5.541645,1.09088 -7.723395,3.27263 -2.09448,2.09448 -3.14172,4.6253 -3.14172,7.59248 v 54.58739 z M 87.313603,122.40979 V 46.09218 h 21.861137 v 76.31761 z M 141.90101,24.23104 c 0,0 11.45119,1.92467 16.57306,7.04654 5.15272,5.15272 5.15717,14.8146 5.15717,14.8146 h 10.99602 v 10.86511 h -10.99602 v 43.59136 c 0,3.57807 1.17815,6.32708 3.53444,8.24702 2.35629,1.83267 4.4944,2.74901 6.41434,2.74901 h 1.04724 v 10.86511 h -10.99602 c -5.93435,0 -11.03965,-2.13811 -15.31588,-6.41434 -4.27623,-4.27623 -6.41435,-9.42517 -6.41435,-15.4468 V 56.95729 H 130.90499 V 46.09218 h 10.99602 z M 261.81,89.68354 h -43.59137 v 10.86511 c 0,2.96719 1.04725,5.54166 3.14173,7.7234 2.18175,2.18175 4.75621,3.27263 7.72339,3.27263 h 10.99602 c 7.24341,0 10.86511,-3.66535 10.86511,-10.99603 H 261.81 c -1.65813,14.57409 -8.90153,21.86114 -21.73023,21.86114 h -21.86114 c -5.93436,0 -11.08328,-2.13811 -15.44678,-6.41434 -4.27623,-4.27623 -6.41435,-9.42517 -6.41435,-15.4468 V 67.8224 c 0,-5.93436 2.13812,-11.03965 6.41435,-15.31588 4.3635,-4.27623 9.51242,-6.41434 15.44678,-6.41434 h 21.86114 c 5.93436,0 11.03965,2.13811 15.31589,6.41434 4.27623,4.27623 6.41434,9.38152 6.41434,15.31588 z M 218.21863,78.81843 h 21.86114 V 67.8224 c 0,-2.96718 -1.09088,-5.498 -3.27262,-7.59248 -2.09449,-2.18175 -4.66894,-3.27263 -7.7234,-3.27263 -2.96718,0 -5.54164,1.09088 -7.72339,3.27263 -2.09448,2.09448 -3.14173,4.6253 -3.14173,7.59248 z m 100.2639,43.59136 V 46.09218 h 21.86113 v 10.86511 c 0.43635,-3.66535 1.57086,-6.37071 3.40353,-8.11611 1.83267,-1.83267 4.31987,-2.749 7.46159,-2.749 h 10.99602 c 5.93436,0 11.03965,2.13811 15.31588,6.41434 4.27624,4.27623 6.41435,9.38152 6.41435,15.31588 v 54.58739 H 362.2048 V 67.8224 c 0,-2.96718 -1.09088,-5.498 -3.27263,-7.59248 -2.09448,-2.18175 -4.66894,-3.27263 -7.72339,-3.27263 -2.96719,0 -5.54166,1.09088 -7.7234,3.27263 -2.09448,2.09448 -3.14172,4.6253 -3.14172,7.59248 v 54.58739 z m 66.46189,-76.31761 h 65.4525 v 10.86511 l -43.59137,54.58739 h 43.59137 v 10.86511 h -65.4525 v -10.86511 l 43.72227,-54.58739 h -43.72227 z"
     id="text42"
     aria-label="hite nz" />
</svg>
